<?xml version="1.0" encoding="UTF-8"?>
<svg width="512" height="512" viewBox="0 0 512 512" fill="none" xmlns="http://www.w3.org/2000/svg">
  <!-- Background -->
  <rect width="512" height="512" rx="128" fill="#FF85A2"/>
  
  <!-- Heart shapes -->
  <path d="M256 150C300 100 380 120 390 190C400 260 300 330 256 370C212 330 112 260 122 190C132 120 212 100 256 150Z" fill="white"/>
  <path d="M256 210C283 180 330 190 336 230C342 270 283 310 256 335C229 310 170 270 176 230C182 190 229 180 256 210Z" fill="#5D9FFF"/>
  
  <!-- Sparkles -->
  <circle cx="162" cy="140" r="12" fill="white"/>
  <circle cx="350" cy="140" r="12" fill="white"/>
  <circle cx="162" cy="380" r="10" fill="white"/>
  <circle cx="350" cy="380" r="10" fill="white"/>
  <circle cx="400" cy="260" r="8" fill="white"/>
  <circle cx="112" cy="260" r="8" fill="white"/>
</svg>