<svg xmlns="http://www.w3.org/2000/svg" viewBox="0 0 512 512" width="512" height="512">
  <defs>
    <linearGradient id="heartGradient" x1="0%" y1="0%" x2="100%" y2="0%">
      <stop offset="0%" style="stop-color:#1A2CFC;stop-opacity:1" />
      <stop offset="50%" style="stop-color:#6C22A6;stop-opacity:1" />
      <stop offset="100%" style="stop-color:#D376F3;stop-opacity:1" />
    </linearGradient>
  </defs>
  <rect width="512" height="512" fill="#FFFFFF" rx="128" ry="128"/>
  <g transform="translate(86, 76) scale(0.68)">
    <path d="M250,402.7c-4.2,0-8.3-1.4-11.7-4.1C223.8,386.2,90,274.8,90,177.9c0-49.8,40.5-90.3,90.3-90.3
    c30.1,0,57.9,15,74.7,40.1c16.8-25.1,44.6-40.1,74.7-40.1c49.8,0,90.3,40.5,90.3,90.3c0,96.9-133.8,208.3-148.3,220.7
    C258.3,401.3,254.2,402.7,250,402.7z" fill="none" stroke="url(#heartGradient)" stroke-width="15" stroke-linecap="round" stroke-linejoin="round" stroke-dasharray="15,8"/>
    <path d="M250,362.7c-3.2,0-6.3-1-8.9-3.1C230.6,350.3,130,266.2,130,191.9c0-37.8,30.7-68.5,68.5-68.5
    c22.9,0,43.9,11.4,56.6,30.4c12.7-19,33.8-30.4,56.6-30.4c37.8,0,68.5,30.7,68.5,68.5c0,74.3-100.6,158.4-111.1,167.7
    C256.3,361.6,253.2,362.7,250,362.7z" fill="none" stroke="url(#heartGradient)" stroke-width="10" stroke-linecap="round" stroke-linejoin="round" stroke-dasharray="12,6"/>
    <path d="M250,322.7c-2.2,0-4.3-0.7-6.1-2.1C237.3,314.5,170,258.2,170,206.9c0-25.8,21-46.8,46.8-46.8
    c15.6,0,30,7.8,38.7,20.8c8.7-13,23.1-20.8,38.7-20.8c25.8,0,46.8,21,46.8,46.8c0,51.3-67.3,107.5-73.9,113.6
    C254.3,321.9,252.2,322.7,250,322.7z" fill="none" stroke="url(#heartGradient)" stroke-width="8" stroke-linecap="round" stroke-linejoin="round" stroke-dasharray="10,5"/>
    <path d="M250,292.7c-1.4,0-2.8-0.5-3.9-1.4C242,288.3,200,253.2,200,217.9c0-16.8,13.7-30.5,30.5-30.5
    c10.2,0,19.6,5.1,25.3,13.6c5.7-8.5,15.1-13.6,25.3-13.6c16.8,0,30.5,13.7,30.5,30.5c0,35.3-42,70.4-46.1,73.4
    C252.8,292.2,251.4,292.7,250,292.7z" fill="none" stroke="url(#heartGradient)" stroke-width="5" stroke-linecap="round" stroke-linejoin="round" stroke-dasharray="8,4"/>
  </g>
</svg>