<svg xmlns="http://www.w3.org/2000/svg" viewBox="0 0 100 100" width="100%" height="100%">
  <defs>
    <linearGradient id="heartGradient" x1="0%" y1="0%" x2="100%" y2="0%">
      <stop offset="0%" style="stop-color:#1A2CFC;stop-opacity:1" />
      <stop offset="50%" style="stop-color:#6C22A6;stop-opacity:1" />
      <stop offset="100%" style="stop-color:#D376F3;stop-opacity:1" />
    </linearGradient>
  </defs>
  <path d="M50,85c-1,0-2-0.3-2.8-1C44.7,81.9,15,58.2,15,38c0-11.9,9.7-21.6,21.6-21.6c7.2,0,13.9,3.6,17.9,9.6
  c4-6,10.6-9.6,17.9-9.6C84.3,16.4,94,26.1,94,38c0,20.2-29.7,43.9-32.2,45.9C52,84.7,51,85,50,85z" 
  fill="none" stroke="url(#heartGradient)" stroke-width="4" stroke-linecap="round" stroke-linejoin="round" stroke-dasharray="3,2"/>
  
  <path d="M50,75c-0.7,0-1.4-0.2-2-0.7c-1.8-1.5-25-20.7-25-36.3c0-8.3,6.7-15,15-15c5,0,9.6,2.5,12.4,6.7
  c2.8-4.2,7.4-6.7,12.4-6.7c8.3,0,15,6.7,15,15c0,15.6-23.2,34.8-25,36.3C51.4,74.8,50.7,75,50,75z"
  fill="none" stroke="url(#heartGradient)" stroke-width="3" stroke-linecap="round" stroke-linejoin="round" stroke-dasharray="2,1.5"/>
  
  <path d="M50,65c-0.5,0-1-0.2-1.4-0.5C47.4,63.6,30,49.3,30,38c0-5.5,4.5-10,10-10c3.3,0,6.4,1.7,8.2,4.4
  c1.8-2.8,4.9-4.4,8.2-4.4c5.5,0,10,4.5,10,10c0,11.3-17.4,25.6-18.6,26.5C51,64.8,50.5,65,50,65z"
  fill="none" stroke="url(#heartGradient)" stroke-width="2" stroke-linecap="round" stroke-linejoin="round" stroke-dasharray="2,1"/>
</svg>